<?xml version="1.0" encoding="UTF-8" standalone="no"?>
<!DOCTYPE svg PUBLIC "-//W3C//DTD SVG 1.1//EN"
"http://www.w3.org/Graphics/SVG/1.1/DTD/svg11.dtd">
<svg viewBox="0 0 909 1286" version="1.1" xmlns="http://www.w3.org/2000/svg" xmlns:xlink="http://www.w3.org/1999/xlink">
<defs>
<clipPath id="c0"><path d="M32.7,1094.7V226.9H900.4v867.8Z"/></clipPath>
<style type="text/css"><![CDATA[
.g0{
fill: none;
stroke: #252161;
stroke-width: 2.165;
stroke-linecap: butt;
stroke-linejoin: miter;
stroke-miterlimit: 22;
}
.g1{
fill: #252161;
}
.g2{
fill: none;
stroke: #231F20;
stroke-width: 0.866;
stroke-linecap: butt;
stroke-linejoin: miter;
stroke-miterlimit: 22;
}
.g3{
fill: #1E3E94;
}
]]></style>
</defs>
<path d="M107.9,49.3c28,0,50.6,22.6,50.6,50.6c0,27.9,-22.6,50.6,-50.6,50.6C80,150.5,57.3,127.8,57.3,99.9c0,-28,22.7,-50.6,50.6,-50.6Zm0,-15.3c36.4,0,65.9,29,65.9,64.9c0,35.8,-29.5,64.8,-65.9,64.8C71.5,163.7,42,134.7,42,98.9C42,63,71.5,34,107.9,34Z" class="g0"/>
<path d="M50.9,119.7l-1.1,-3.6c-.3,-.8,-.3,-1.5,-.1,-2c.2,-.5,.6,-.8,1.2,-1c.6,-.2,1.2,-.2,1.7,.1c.5,.3,.9,.9,1.2,1.8l.4,1.2l2.3,-.7l.7,2.1Zm2,-3.1l-.2,-.5c-.1,-.4,-.3,-.7,-.5,-.8c-.2,-.2,-.3,-.2,-.5,-.1c-.2,0,-.4,.2,-.5,.3c-.1,.2,0,.5,.1,1l.2,.6ZM55,110.4l-6.5,1.1l-.6,-3.7c-.1,-.7,-.2,-1.3,-.1,-1.7c0,-.4,.2,-.7,.4,-1c.3,-.2,.6,-.4,1,-.5c.4,0,.7,0,1,.1c.3,.1,.5,.3,.7,.6c.2,.2,.3,.4,.4,.8c.1,-.3,.1,-.5,.2,-.7c0,0,.1,-.2,.2,-.4c.2,-.2,.3,-.3,.4,-.4l1.7,-1.4l.4,2.6l-1.8,1.5c-.2,.2,-.3,.4,-.4,.5c-.1,.2,-.1,.4,0,.6v.2l2.6,-.4Zm-4.2,-1.6l-.2,-.9c0,-.1,-.1,-.3,-.2,-.6c0,-.2,-.1,-.3,-.2,-.4c-.2,0,-.3,-.1,-.4,0c-.3,0,-.4,.1,-.5,.3c-.1,.1,-.1,.4,0,.8l.2,1ZM50.6,103c-1.1,0,-1.9,-.3,-2.5,-1c-.7,-.7,-1,-1.6,-1,-2.8c0,-1.2,.3,-2.2,.9,-2.9c.5,-.7,1.3,-1,2.4,-1c.8,0,1.4,.1,1.9,.4c.5,.3,.9,.7,1.2,1.2c.2,.6,.4,1.3,.4,2.1c0,.8,-.1,1.5,-.3,2.1c-.3,.5,-.6,1,-1.1,1.3c-.5,.4,-1.2,.6,-1.9,.6Zm-.1,-2.3c.7,0,1.2,-.2,1.5,-.4c.2,-.3,.4,-.7,.4,-1.2c0,-.5,-.2,-.9,-.5,-1.1c-.3,-.3,-.8,-.4,-1.5,-.4c-.6,0,-1.1,.1,-1.3,.4c-.3,.3,-.5,.7,-.5,1.2c.1,.4,.2,.8,.5,1.1c.3,.3,.8,.4,1.4,.4ZM47.4,92.9l.4,-2.1l4,-2.2L48.2,88l.4,-2.1L55,87l-.3,2.1l-4,2.1l3.5,.6L53.9,94ZM49,83.8l2.3,-6.6l1.6,.5l-.8,2.2l4.6,1.7L56,83.7L51.3,82.1l-.8,2.2Zm5.6,-6.4c-1,-.5,-1.6,-1.2,-1.8,-2.1c-.2,-.9,0,-1.9,.6,-2.9c.6,-1.1,1.3,-1.8,2.1,-2.1c.8,-.4,1.7,-.3,2.6,.2c.7,.4,1.2,.8,1.5,1.3c.3,.5,.4,1.1,.4,1.7c0,.6,-.2,1.3,-.6,2c-.4,.7,-.8,1.3,-1.3,1.7c-.5,.3,-1,.5,-1.6,.6c-.6,.1,-1.3,-.1,-1.9,-.4Zm1,-2.1c.6,.3,1.1,.4,1.5,.3c.4,-.1,.7,-.3,.9,-.8c.2,-.4,.3,-.8,.2,-1.2c-.1,-.3,-.5,-.7,-1.2,-1.1c-.5,-.2,-1,-.3,-1.4,-.2c-.3,.1,-.7,.4,-.9,.8c-.2,.4,-.2,.8,-.1,1.2c.1,.4,.5,.7,1,1Zm6.1,-8.2L63,65.3c.3,.2,.5,.3,.7,.3c.4,-.1,.7,-.2,1,-.6c.2,-.2,.3,-.5,.3,-.7c0,-.2,-.1,-.4,-.2,-.5c-.2,-.1,-.3,-.1,-.5,-.1c-.2,.1,-.6,.3,-1.1,.7c-.8,.6,-1.4,1,-1.9,1.2c-.6,.1,-1,0,-1.4,-.3c-.3,-.2,-.5,-.5,-.6,-.9c-.1,-.3,0,-.7,.1,-1.2c.2,-.4,.5,-1,1,-1.6c.5,-.7,1.1,-1.2,1.7,-1.4c.5,-.2,1.1,-.1,1.7,.3l-1.3,1.7c-.2,-.1,-.5,-.2,-.7,-.1c-.2,0,-.4,.2,-.6,.5c-.2,.2,-.3,.4,-.3,.5c0,.2,0,.3,.2,.4c0,.1,.1,.1,.3,.1c.1,-.1,.3,-.2,.6,-.5c.8,-.7,1.4,-1.1,1.9,-1.3c.4,-.2,.8,-.3,1.1,-.3c.4,0,.7,.2,1,.4c.3,.2,.5,.6,.6,1c.1,.4,.1,.9,0,1.4c-.2,.5,-.5,1,-1,1.6c-.7,.9,-1.5,1.5,-2.1,1.6c-.6,.1,-1.2,0,-1.8,-.4ZM66,60.2c-.8,-.7,-1.1,-1.6,-1,-2.5c.1,-.9,.6,-1.7,1.4,-2.6c.9,-.8,1.8,-1.3,2.7,-1.3c.9,0,1.7,.3,2.4,1.1c.6,.5,.9,1.1,1,1.7c.1,.5,.1,1.1,-.1,1.7c-.2,.5,-.6,1.1,-1.2,1.7c-.6,.6,-1.2,.9,-1.8,1.2c-.6,.2,-1.1,.2,-1.7,.1c-.6,-.2,-1.2,-.5,-1.7,-1.1Zm1.6,-1.5c.5,.4,.9,.7,1.3,.7c.4,0,.8,-.1,1.2,-.5c.3,-.3,.5,-.7,.5,-1.1c0,-.4,-.3,-.8,-.8,-1.4c-.4,-.4,-.8,-.6,-1.2,-.6c-.4,-.1,-.8,.1,-1.1,.4c-.4,.4,-.5,.7,-.5,1.1c0,.4,.2,.9,.6,1.4Zm9.8,-7.1l2,-.7c.2,.5,.2,1,.2,1.4c-.1,.5,-.2,.9,-.5,1.3c-.2,.3,-.6,.7,-1.2,1.1c-.6,.5,-1.2,.8,-1.8,.9c-.5,.1,-1.1,.1,-1.7,-.1c-.6,-.2,-1.1,-.7,-1.6,-1.3c-.6,-.9,-.8,-1.8,-.6,-2.6c.2,-.9,.8,-1.7,1.7,-2.4c.8,-.5,1.5,-.8,2.1,-.8c.7,-.1,1.3,.1,1.9,.5l-1.4,1.5c-.2,-.1,-.4,-.2,-.5,-.2c-.2,0,-.4,-.1,-.6,0c-.2,0,-.4,.1,-.5,.2c-.5,.3,-.7,.7,-.7,1.2c0,.3,.1,.7,.5,1.2c.4,.6,.8,.9,1.2,1c.3,.1,.7,0,1,-.3c.4,-.2,.6,-.5,.7,-.8c0,-.3,0,-.7,-.2,-1.1Zm2.7,-2.3c-.5,-1,-.5,-1.9,-.1,-2.7c.3,-.8,1.1,-1.5,2.2,-1.9c1.1,-.5,2.1,-.7,3,-.4c.8,.3,1.5,.9,1.9,1.8c.3,.7,.4,1.4,.3,1.9c0,.6,-.3,1.1,-.7,1.6c-.3,.5,-.9,.9,-1.7,1.2c-.7,.4,-1.4,.5,-2,.5c-.6,0,-1.2,-.1,-1.7,-.4c-.5,-.4,-.9,-.9,-1.2,-1.6Zm2.1,-.9c.2,.6,.5,1,.9,1.1c.4,.2,.8,.2,1.2,0c.5,-.2,.8,-.5,.9,-.9c.1,-.4,.1,-.9,-.2,-1.6c-.3,-.5,-.6,-.9,-1,-1c-.3,-.2,-.7,-.1,-1.2,.1c-.4,.1,-.7,.4,-.8,.8c-.2,.4,-.1,.9,.2,1.5Zm7.4,.3L87.8,42.4l3.7,-1c.7,-.2,1.2,-.3,1.6,-.3c.4,0,.8,.1,1.1,.3c.3,.3,.5,.6,.6,1c.1,.3,.1,.6,0,.9c-.1,.3,-.3,.6,-.5,.9c-.2,.1,-.4,.3,-.7,.4c.2,0,.5,.1,.6,.1c.1,0,.2,.1,.4,.2c.2,.2,.4,.3,.5,.3l1.6,1.6l-2.5,.7L92.4,45.9c-.2,-.2,-.4,-.4,-.5,-.4c-.2,-.1,-.4,-.1,-.6,0l-.2,.1l.7,2.5Zm1.2,-4.3l.9,-.3c.1,0,.3,-.1,.6,-.2c.1,-.1,.2,-.2,.3,-.3c0,-.2,.1,-.3,0,-.5c0,-.2,-.2,-.3,-.3,-.4c-.2,0,-.5,0,-.9,.1l-1,.3Zm6.6,2.2l-.9,-6.5l3.8,-.5c.7,-.1,1.3,-.1,1.7,0c.3,0,.7,.2,.9,.4c.3,.3,.5,.6,.5,1c.1,.4,0,.7,-.1,1c-.1,.3,-.4,.5,-.6,.7c-.2,.2,-.5,.3,-.8,.4c.3,.1,.5,.1,.6,.2c.1,0,.2,.1,.4,.3c.2,.1,.3,.2,.4,.3l1.4,1.8l-2.6,.3l-1.5,-1.8c-.2,-.3,-.3,-.4,-.5,-.5c-.2,0,-.3,-.1,-.6,0h-.2l.4,2.6Zm1.8,-4.1l.9,-.2c.1,0,.3,0,.6,-.1c.2,-.1,.3,-.2,.4,-.3c.1,-.1,.1,-.2,.1,-.4c-.1,-.2,-.2,-.3,-.3,-.4c-.2,-.1,-.5,-.1,-.9,-.1l-1,.1Zm5.8,-.1c0,-1.1,.3,-1.9,1,-2.5c.7,-.6,1.7,-.9,2.9,-.8c1.2,0,2.2,.3,2.8,.9c.7,.6,1,1.4,1,2.5c0,.7,-.2,1.3,-.5,1.8c-.3,.5,-.7,.9,-1.3,1.2c-.5,.2,-1.2,.4,-2,.3c-.9,0,-1.6,-.1,-2.1,-.3c-.6,-.3,-1,-.7,-1.3,-1.2c-.4,-.5,-.5,-1.1,-.5,-1.9Zm2.3,0c0,.7,.1,1.2,.4,1.5c.3,.3,.6,.4,1.1,.4c.5,0,.9,-.1,1.2,-.4c.2,-.3,.4,-.8,.4,-1.5c0,-.6,-.1,-1.1,-.4,-1.4c-.3,-.3,-.7,-.4,-1.2,-.4c-.4,0,-.8,.1,-1.1,.4c-.3,.3,-.4,.8,-.4,1.4Zm10.1,1.8l2.1,.4c0,.3,.1,.6,.2,.8c.1,.3,.4,.5,.9,.6c.3,0,.6,0,.8,-.1c.2,-.1,.3,-.2,.3,-.4c.1,-.1,0,-.3,-.1,-.5c-.2,-.1,-.5,-.3,-1.1,-.6c-.9,-.4,-1.6,-.8,-1.9,-1.2c-.4,-.5,-.5,-.9,-.4,-1.4c.1,-.3,.3,-.6,.6,-.9c.2,-.2,.6,-.4,1.1,-.4c.5,-.1,1.1,-.1,1.8,.1c.9,.2,1.6,.5,2,.9c.5,.4,.6,1,.6,1.7l-2.1,-.4c0,-.3,-.1,-.5,-.3,-.7c-.1,-.2,-.3,-.3,-.7,-.4c-.2,0,-.4,0,-.6,.1c-.1,0,-.2,.1,-.3,.3c0,.1,.1,.2,.1,.3c.1,.1,.4,.2,.7,.4c1,.4,1.6,.7,2,1c.4,.3,.7,.6,.8,.9c.1,.4,.1,.7,.1,1c-.1,.4,-.3,.8,-.7,1.1c-.3,.3,-.7,.5,-1.2,.5c-.5,.1,-1.1,.1,-1.8,-.1c-1.3,-.3,-2.1,-.7,-2.5,-1.2c-.3,-.5,-.5,-1.1,-.4,-1.8Zm11.8,4.6l-2.4,-.9l-.7,.9l-2.2,-.9l4.9,-5.1l2.4,.9l.3,7.1l-2.3,-.9Zm.1,-1.5l.1,-2.5l-1.6,1.9Zm2.2,-5.2l.8,.2c-.1,.1,-.1,.2,-.1,.2c-.1,.3,-.3,.5,-.5,.7c-.3,.1,-.5,.1,-.8,0c-.2,-.1,-.5,-.3,-.9,-.6c-.2,-.2,-.3,-.3,-.4,-.3c-.1,-.1,-.2,-.1,-.3,0c0,0,-.1,.1,-.2,.2l-.7,-.3c0,-.1,.1,-.1,.1,-.2c.1,-.3,.3,-.5,.5,-.6c.3,-.1,.5,-.1,.8,0c.1,.1,.2,.1,.3,.2c.1,0,.2,.1,.5,.3c.2,.2,.4,.4,.5,.4q.1,0,.2,0c.1,0,.2,-.1,.2,-.2Zm2,6.1c.5,-1,1.2,-1.5,2.1,-1.7c.9,-.2,1.9,0,2.9,.6c1.1,.6,1.8,1.3,2.1,2.2c.2,.8,.1,1.7,-.4,2.6c-.4,.7,-.8,1.2,-1.3,1.4c-.5,.3,-1.1,.4,-1.7,.4c-.6,0,-1.3,-.2,-2,-.7c-.7,-.4,-1.2,-.8,-1.6,-1.3c-.4,-.5,-.6,-1,-.6,-1.6c-.1,-.6,.1,-1.3,.5,-1.9Zm2,1.1c-.3,.6,-.5,1.1,-.4,1.4c.1,.4,.4,.7,.8,1c.4,.2,.8,.3,1.2,.2c.4,-.1,.8,-.5,1.1,-1.1c.3,-.6,.4,-1,.3,-1.4c-.1,-.4,-.3,-.7,-.8,-1c-.4,-.2,-.8,-.3,-1.1,-.1c-.4,.1,-.8,.4,-1.1,1Zm11.1,3.5l4.3,3.7l-.9,1l-2.6,-2.2l-.7,.9l2.1,1.9l-.8,1l-2.2,-1.9l-1.8,2l-1.7,-1.5Zm.9,9.6l4.9,-4.3l2.5,2.9c.5,.5,.8,1,1,1.3c.1,.4,.2,.8,.1,1.1c-.1,.4,-.3,.7,-.6,1c-.3,.2,-.6,.4,-.9,.4c-.3,0,-.6,0,-.9,-.1c-.2,-.1,-.5,-.3,-.8,-.5c.2,.3,.2,.5,.2,.6c.1,.1,0,.3,0,.5c0,.3,0,.4,-.1,.5l-.7,2.1l-1.7,-2l.7,-2.2c.1,-.3,.2,-.5,.2,-.6c-.1,-.2,-.2,-.4,-.3,-.6l-.1,-.1l-2,1.7Zm4.4,-.8l.6,.7c.1,.1,.3,.2,.5,.4c.1,.1,.3,.2,.4,.2c.2,0,.3,-.1,.4,-.2c.2,-.1,.2,-.3,.2,-.5c0,-.1,-.1,-.4,-.4,-.7l-.7,-.8ZM156,71.8l-1.5,-2.2l-1.1,.3L152.1,68l7,-1.4l1.4,2.1l-3.9,6l-1.3,-2Zm.9,-1.2l1.5,-2l-2.5,.7Zm5.9,2.4l.9,2l-2.3,3.9l3.3,-1.4l.9,2l-6.1,2.6l-.8,-2l2.2,-4l-3.3,1.4l-.8,-2Zm.9,14.7l-.1,2.1c-.5,0,-.9,-.1,-1.3,-.3c-.4,-.2,-.7,-.5,-1,-.9c-.3,-.4,-.5,-.9,-.6,-1.6c-.2,-.7,-.2,-1.4,-.2,-2c.1,-.5,.4,-1,.8,-1.5c.4,-.5,1,-.8,1.8,-1c1.1,-.2,2,-.1,2.7,.4c.7,.5,1.2,1.3,1.5,2.5c.2,.9,.2,1.7,0,2.3c-.2,.6,-.6,1.1,-1.3,1.5l-.8,-1.9c.2,-.1,.3,-.2,.4,-.3c.1,-.2,.2,-.3,.2,-.5c.1,-.2,0,-.5,0,-.7c-.1,-.5,-.4,-.8,-.8,-1c-.3,-.2,-.8,-.2,-1.3,0c-.7,.1,-1.2,.4,-1.4,.7c-.2,.3,-.3,.6,-.2,1.1c.1,.4,.3,.7,.6,.9c.2,.1,.6,.2,1,.2Zm4.4,2.9l.3,2.3l-6.5,.9l-.3,-2.3ZM164.2,95l.2,2.2c-.3,0,-.6,.1,-.7,.3c-.3,.2,-.4,.6,-.4,1c0,.3,.1,.6,.2,.8c.2,.1,.3,.2,.5,.2c.2,0,.3,-.1,.4,-.2c.2,-.2,.3,-.6,.4,-1.2c.2,-1,.4,-1.7,.8,-2.2c.3,-.4,.7,-.6,1.2,-.6c.4,-.1,.7,.1,1,.3c.3,.2,.5,.5,.7,1c.2,.4,.3,1,.3,1.8c0,.9,-.1,1.7,-.4,2.2c-.3,.5,-.8,.8,-1.5,.9l-.2,-2.2c.3,0,.5,-.2,.7,-.4c.1,-.1,.2,-.4,.2,-.7c0,-.3,-.1,-.5,-.2,-.6c-.1,-.2,-.2,-.2,-.4,-.2c-.1,0,-.2,0,-.2,.1c-.1,.2,-.2,.4,-.3,.8c-.1,1,-.3,1.7,-.5,2.2c-.2,.4,-.4,.7,-.7,.9c-.3,.2,-.6,.3,-1,.3c-.4,.1,-.8,-.1,-1.2,-.3c-.3,-.3,-.6,-.7,-.8,-1.1c-.2,-.5,-.3,-1.1,-.3,-1.8c0,-1.3,.2,-2.1,.6,-2.6c.4,-.5,1,-.8,1.6,-.9Zm-.2,13.2l-.8,1.9c-.4,-.2,-.8,-.4,-1.1,-.8c-.3,-.3,-.5,-.7,-.6,-1.2c-.1,-.4,-.1,-1,0,-1.6c.1,-.8,.3,-1.5,.5,-1.9c.3,-.5,.7,-.9,1.3,-1.2c.6,-.3,1.3,-.4,2.1,-.3c1,.2,1.8,.6,2.3,1.3c.5,.8,.7,1.7,.5,2.9c-.1,.9,-.4,1.7,-.8,2.1c-.4,.5,-1,.8,-1.7,1l-.1,-2.1c.2,0,.3,0,.4,-.1c.2,-.1,.4,-.3,.5,-.4c.1,-.2,.1,-.4,.2,-.6c.1,-.5,-.1,-1,-.4,-1.3c-.2,-.2,-.7,-.4,-1.2,-.5c-.8,-.1,-1.3,0,-1.6,.2c-.3,.2,-.4,.5,-.5,1c-.1,.4,0,.7,.2,1c.2,.3,.4,.5,.8,.6Zm.1,3.4c1,.3,1.7,.8,2.1,1.7c.3,.8,.4,1.8,0,2.9c-.3,1.2,-.9,2,-1.6,2.5c-.8,.5,-1.7,.6,-2.7,.3c-.7,-.2,-1.3,-.6,-1.7,-1c-.4,-.4,-.6,-.9,-.7,-1.5c-.1,-.6,0,-1.3,.2,-2.1c.2,-.8,.5,-1.5,.9,-1.9c.4,-.5,.9,-.8,1.5,-1c.6,-.2,1.2,-.1,2,.1Zm-.7,2.2c-.6,-.2,-1.1,-.2,-1.5,0c-.3,.2,-.6,.5,-.7,.9c-.2,.5,-.1,.9,.1,1.3c.1,.3,.6,.6,1.3,.8c.6,.2,1.1,.1,1.4,0c.4,-.2,.6,-.6,.8,-1c.1,-.5,.1,-.9,-.1,-1.2c-.2,-.4,-.7,-.6,-1.3,-.8Z" class="g1"/>
<path d="M69.4,138.3l1.5,1.5L68,142.5c-.3,.3,-.6,.5,-.9,.7c-.4,.2,-.7,.2,-1.1,.2c-.4,0,-.7,0,-1,-.2c-.4,-.2,-.8,-.5,-1.1,-.9c-.3,-.2,-.5,-.5,-.7,-.8c-.3,-.3,-.4,-.6,-.5,-.9c-.1,-.3,-.1,-.6,-.1,-.9c0,-.3,.1,-.6,.2,-.8c.3,-.4,.5,-.7,.7,-1l2.9,-2.8l1.4,1.5l-2.9,2.9c-.3,.2,-.4,.5,-.4,.8c0,.3,.1,.6,.4,.8c.2,.3,.5,.4,.8,.4c.3,0,.5,-.1,.8,-.4Zm1.9,1.7l1.6,1.2l-.3,4.5l2.3,-3l1.5,1.2l-4.1,5.3L70.7,148l.3,-4.4l-2.3,2.9l-1.5,-1.2Zm5.9,4.3l1.7,1.1l-3.6,5.7L73.6,150Zm2.4,1.6l2.8,1.4c.5,.3,.9,.6,1.2,.9c.3,.3,.4,.7,.5,1.1c.1,.3,.1,.7,0,1.2c-.1,.4,-.2,.8,-.4,1.2c-.4,.6,-.7,1.1,-1,1.4c-.3,.3,-.7,.5,-1.1,.6c-.4,.1,-.7,.1,-1.1,0c-.4,-.1,-.8,-.2,-1.1,-.4l-2.8,-1.4Zm1.2,2.3l-1.7,3.3l.5,.2c.4,.2,.7,.3,.9,.3c.2,0,.4,-.1,.6,-.2c.2,-.2,.4,-.5,.7,-1c.3,-.6,.4,-1.1,.3,-1.5c-.1,-.3,-.3,-.6,-.8,-.9Zm6.2,7.2l-2.2,-.8l-.7,.9l-2,-.8l4.8,-5.3l2.1,.8v7.2l-2.1,-.8Zm.1,-1.5l.2,-2.5l-1.5,2Zm4,-2.9l3,.7c.6,.2,1.1,.3,1.4,.6c.3,.2,.6,.5,.8,.9c.1,.3,.2,.7,.2,1.2c.1,.4,0,.8,-.1,1.3c-.1,.7,-.3,1.2,-.6,1.5c-.2,.4,-.5,.7,-.9,.9c-.3,.2,-.7,.3,-1,.3c-.5,0,-.9,0,-1.3,-.1l-3,-.7Zm1.7,2l-.8,3.6l.5,.1c.4,.1,.7,.1,.9,.1c.2,-.1,.4,-.2,.6,-.4c.1,-.3,.3,-.6,.4,-1.2c.1,-.6,.1,-1.1,0,-1.5c-.2,-.3,-.6,-.5,-1.1,-.6Zm4.8,-.4l5.5,.7l-.2,1.4l-3.4,-.5l-.2,1.1l3.2,.4l-.1,1.4l-3.2,-.4L99,158l3.6,.4l-.2,1.6l-5.7,-.8Zm8.9,.9l3.1,-.1c.6,0,1.1,0,1.5,.2c.4,.2,.7,.4,.9,.7c.3,.3,.5,.7,.6,1.1c.1,.4,.2,.8,.2,1.3c0,.7,-.1,1.2,-.2,1.6c-.2,.4,-.4,.8,-.7,1.1c-.3,.2,-.6,.4,-.9,.5c-.5,.1,-.9,.2,-1.3,.2l-3,.1Zm2.1,1.4l.1,3.7h.5c.4,0,.8,-.1,.9,-.2c.2,-.1,.4,-.2,.5,-.5c.1,-.2,.1,-.6,.1,-1.2c0,-.7,-.2,-1.2,-.4,-1.4c-.2,-.3,-.6,-.4,-1.2,-.4Zm4.5,-1.7l5.5,-.7l.2,1.4l-3.5,.5l.2,1l3.2,-.4l.1,1.4l-3.2,.4l.2,1.3l3.6,-.4l.2,1.5l-5.7,.7Zm8.9,-1.5l2,-.6l1.8,6.5l-2,.6Zm2.8,-.7l2.6,-1l2.4,3.4l-.5,-4.2l2.6,-1l2.4,6.3l-1.6,.6l-1.8,-4.7l.6,5.2l-1.5,.6l-3,-4.3l1.8,4.7l-1.6,.7Zm13.8,0l-2.1,1.1l.3,1.2l-1.9,1l-1.1,-7.1l2,-1.1l5.5,4.6l-1.9,1.1Zm-1.1,-1.1l-1.9,-1.7l.6,2.4Zm5.6,-3.4l-.8,-1.2l2.6,-1.8l1.7,2.3c-.3,.7,-.6,1.3,-.9,1.7c-.3,.4,-.7,.8,-1.2,1.1c-.7,.5,-1.3,.8,-1.9,.8c-.5,.1,-1.1,0,-1.6,-.3c-.5,-.3,-1,-.7,-1.4,-1.3c-.4,-.6,-.7,-1.2,-.8,-1.8c0,-.6,.1,-1.2,.4,-1.8c.3,-.4,.7,-.9,1.3,-1.3c.6,-.4,1.1,-.7,1.5,-.8c.4,-.1,.8,-.1,1.1,0c.4,.1,.7,.3,1.1,.5l-1.4,1.5c-.2,-.2,-.5,-.2,-.7,-.2c-.3,0,-.5,.1,-.8,.2c-.3,.3,-.5,.6,-.6,1c0,.5,.2,.9,.6,1.5c.4,.6,.8,.9,1.2,1c.4,.1,.8,0,1.2,-.2c.2,-.2,.4,-.3,.5,-.5c.1,-.2,.3,-.4,.4,-.7l-.4,-.5Zm.4,-5.6l4.1,-3.8l.9,1.1l-2.5,2.4l.7,.7l2.4,-2.2l.9,1l-2.3,2.2l.9,1l2.6,-2.4l1,1.1l-4.1,3.9Zm4.5,-4.1l1.8,-2.1l3.8,1.9l-2.4,-3.5l1.8,-2l5,4.4l-1.1,1.3l-3.8,-3.4l3,4.4L155,139l-4.7,-2.4l3.9,3.3l-1.2,1.3Z" class="g1"/>
<path fill-rule="evenodd" d="M210.6,96.1h657v5.5h-657Z" class="g1"/>
<path fill-rule="evenodd" d="M66.5,1144.1H866.6v5.6H66.5Z" class="g1"/>
<image clip-path="url(#c0)" preserveAspectRatio="none" x="33" y="227" width="867" height="868" xlink:href="img/1.jpg"/>
<path d="M69.3,1013.5H190.8V1135H69.3Z" class="g2"/>
</svg>